<?xml version="1.0" standalone="no"?>
<!DOCTYPE svg PUBLIC "-//W3C//DTD SVG 20010904//EN"
 "http://www.w3.org/TR/2001/REC-SVG-20010904/DTD/svg10.dtd">
<svg version="1.0" xmlns="http://www.w3.org/2000/svg"
 width="700.000000pt" height="700.000000pt" viewBox="0 0 700.000000 700.000000"
 preserveAspectRatio="xMidYMid meet">
<metadata>
Created by potrace 1.14, written by Peter Selinger 2001-2017
</metadata>
<g transform="translate(0.000000,700.000000) scale(0.100000,-0.100000)"
fill="#000000" stroke="none">
<path d="M4123 6374 c-3 -7 -5 -607 -6 -1333 -2 -1315 -2 -1321 18 -1322 108
-3 1365 0 1371 4 7 4 11 193 5 247 -1 7 -197 10 -566 10 l-565 0 -2 1202 -3
1203 -124 0 c-89 1 -125 -3 -128 -11z"/>
<path d="M1494 3263 c-7 -2 -11 -2486 -5 -2628 1 -21 4 -21 559 -19 546 1 661
5 752 26 25 5 52 11 60 13 8 2 49 15 90 30 301 109 521 339 659 692 59 152 76
275 76 563 0 305 -14 395 -88 585 -64 167 -140 283 -274 420 -112 115 -183
167 -313 228 -111 52 -204 72 -382 83 -102 6 -1118 12 -1134 7z m1211 -271
c170 -39 277 -96 398 -212 221 -211 318 -468 319 -840 0 -152 -8 -225 -38
-359 -9 -42 -50 -154 -77 -211 -121 -256 -372 -452 -622 -486 -27 -3 -59 -8
-70 -11 -11 -3 -210 -7 -442 -10 l-423 -5 0 1082 0 1082 433 -5 c386 -5 442
-7 522 -25z"/>
</g>
</svg>
